<svg width="667" height="40" viewBox="0 0 667 40" fill="none" xmlns="http://www.w3.org/2000/svg">
<path d="M6.36586 15.5716C5.27338 13.9202 4.46037 12.6118 3.92683 11.6463C2.98679 9.99492 2.27541 8.38161 1.79269 6.8064C1.18293 4.87551 0.878052 2.93191 0.878052 0.975609H10.6341C10.6341 1.99187 10.7993 3.00813 11.1296 4.02439C11.409 4.91362 11.8664 5.91717 12.5015 7.03506C12.9588 7.82266 13.6956 8.96595 14.7119 10.4649L15.5122 11.6845L16.3125 10.4649C17.3288 8.96595 18.0656 7.82266 18.5229 7.03506C19.158 5.91717 19.6153 4.91362 19.8948 4.02439C20.2251 3.00813 20.3902 1.99187 20.3902 0.975609H30.1463C30.1463 2.93191 29.8415 4.87551 29.2317 6.8064C28.749 8.38161 28.0376 9.99492 27.0976 11.6463C26.564 12.6118 25.751 13.9202 24.6585 15.5716L24.468 15.8765C23.4517 17.3755 22.7149 18.5188 22.2576 19.3064C21.6225 20.4243 21.1651 21.4278 20.8857 22.3171C20.5554 23.3333 20.3902 24.3496 20.3902 25.3659V40H10.6341V25.3659C10.6341 24.3496 10.469 23.3333 10.1387 22.3171C9.85925 21.4278 9.40193 20.4243 8.76677 19.3064C8.30945 18.5188 7.57267 17.3755 6.55641 15.8765L6.36586 15.5716Z" fill="#808080"/>
<path d="M41.9939 11.3796C41.4604 11.8623 41.0031 12.6245 40.622 13.6662C40.0122 15.3684 39.7073 17.655 39.7073 20.5259C39.7073 23.3714 39.9995 25.6453 40.5838 27.3476C40.9649 28.4146 41.4096 29.1641 41.9177 29.596C42.1972 29.8501 42.5528 30.0279 42.9848 30.1296C43.3405 30.2058 43.874 30.2439 44.5854 30.2439C45.2968 30.2439 45.8303 30.2058 46.186 30.1296C46.6179 30.0279 46.9736 29.8501 47.2531 29.596C47.7612 29.1641 48.2058 28.4146 48.5869 27.3476C49.1712 25.6453 49.4634 23.3714 49.4634 20.5259C49.4634 17.655 49.1585 15.3684 48.5488 13.6662C48.1677 12.6245 47.7104 11.8623 47.1768 11.3796C46.8465 11.1255 46.4655 10.9477 46.0335 10.846C45.6779 10.7698 45.1951 10.7317 44.5854 10.7317C43.9756 10.7317 43.4929 10.7698 43.1372 10.846C42.7053 10.9477 42.3242 11.1255 41.9939 11.3796ZM44.5092 0.975609H44.6616C46.0081 0.975609 47.2022 1.10264 48.2439 1.35671C50.2256 1.81402 51.9787 2.69055 53.5031 3.98628C57.314 7.21291 59.2195 12.7134 59.2195 20.4878C59.2195 28.2622 57.3648 33.7627 53.6555 36.9893C52.1565 38.2851 50.4162 39.1616 48.4345 39.6189C47.342 39.873 46.0971 40 44.6997 40H44.471C43.0737 40 41.8288 39.873 40.7363 39.6189C38.7546 39.1616 37.0142 38.2851 35.5152 36.9893C31.8059 33.7627 29.9512 28.2622 29.9512 20.4878C29.9512 12.7134 31.8567 7.21291 35.6677 3.98628C37.1921 2.69055 38.9451 1.81402 40.9268 1.35671C41.9685 1.10264 43.1626 0.975609 44.5092 0.975609Z" fill="#808080"/>
<path d="M61.7561 1.7378C61.7561 1.68699 61.7561 1.61077 61.7561 1.50915V0.975609H71.5122C71.5122 8.3689 71.563 13.5264 71.6646 16.4482C71.8171 20.7165 72.1347 23.9431 72.6174 26.128C73.0239 27.9319 73.5193 29.1133 74.1037 29.6723C74.5102 30.0534 75.2724 30.2439 76.3903 30.2439C77.5081 30.2439 78.2703 30.0534 78.6768 29.6723C79.2612 29.1133 79.7566 27.9319 80.1631 26.128C80.6458 23.9431 80.9634 20.7165 81.1159 16.4482C81.2175 13.5264 81.2683 8.3689 81.2683 0.975609H91.0244V1.7378C91.0244 9.00406 90.9736 14.1108 90.872 17.0579C90.6941 21.8089 90.3003 25.5437 89.6906 28.2622C89.3095 30.0152 88.8013 31.5396 88.1662 32.8354C87.4294 34.3852 86.502 35.6936 85.3842 36.7607C83.0976 38.9202 80.0996 40 76.3903 40C72.6809 40 69.6829 38.9202 67.3963 36.7607C66.2785 35.6936 65.3511 34.3852 64.6143 32.8354C63.9792 31.5396 63.471 30.0152 63.0899 28.2622C62.4802 25.5437 62.0864 21.8089 61.9085 17.0579C61.8069 14.1108 61.7561 9.00406 61.7561 1.7378Z" fill="#808080"/>
<path d="M115.991 10.7698V20.4497C118.735 20.3481 120.856 20.1067 122.355 19.7256C123.651 19.3699 124.54 18.9126 125.023 18.3537C125.506 17.7947 125.747 16.8801 125.747 15.6098C125.747 14.3902 125.531 13.5137 125.099 12.9802C124.718 12.4721 124.019 12.0401 123.003 11.6845C122.139 11.405 121.098 11.189 119.878 11.0366C118.811 10.9096 117.515 10.8206 115.991 10.7698ZM115.991 30.2058V40H106.235V0.975609H111.57C114.771 0.975609 117.198 1.03913 118.849 1.16616C121.72 1.36941 124.121 1.80132 126.052 2.46189C128.948 3.40193 131.197 4.90091 132.797 6.95884C134.601 9.29624 135.503 12.1799 135.503 15.6098C135.503 19.3445 134.449 22.406 132.34 24.7942C132.01 25.2007 131.641 25.5691 131.235 25.8994C132.505 27.8811 133.496 29.9517 134.207 32.1113C135.071 34.7027 135.503 37.3323 135.503 40H125.747C125.747 37.9675 125.328 35.9604 124.489 33.9787C123.854 32.4289 123.016 31.0061 121.974 29.7104C120.297 29.9644 118.303 30.1296 115.991 30.2058Z" fill="#808080"/>
<path d="M140.479 0.975609H164.869V10.7317H150.235V15.6098H159.991V25.3659H150.235V30.2439H164.869V40H140.479V0.975609Z" fill="#808080"/>
<path d="M184.851 0.975609H193.768L204.363 19.154V0.975609H214.119V40H205.201L194.607 21.8216V40H184.851V0.975609Z" fill="#808080"/>
<path d="M230.454 11.3796C229.921 11.8623 229.463 12.6245 229.082 13.6662C228.473 15.3684 228.168 17.655 228.168 20.5259C228.168 23.3714 228.46 25.6453 229.044 27.3476C229.425 28.4146 229.87 29.1641 230.378 29.596C230.658 29.8501 231.013 30.0279 231.445 30.1296C231.801 30.2058 232.334 30.2439 233.046 30.2439C233.757 30.2439 234.291 30.2058 234.646 30.1296C235.078 30.0279 235.434 29.8501 235.713 29.596C236.222 29.1641 236.666 28.4146 237.047 27.3476C237.632 25.6453 237.924 23.3714 237.924 20.5259C237.924 17.655 237.619 15.3684 237.009 13.6662C236.628 12.6245 236.171 11.8623 235.637 11.3796C235.307 11.1255 234.926 10.9477 234.494 10.846C234.138 10.7698 233.656 10.7317 233.046 10.7317C232.436 10.7317 231.953 10.7698 231.598 10.846C231.166 10.9477 230.785 11.1255 230.454 11.3796ZM232.97 0.975609H233.122C234.469 0.975609 235.663 1.10264 236.704 1.35671C238.686 1.81402 240.439 2.69055 241.963 3.98628C245.774 7.21291 247.68 12.7134 247.68 20.4878C247.68 28.2622 245.825 33.7627 242.116 36.9893C240.617 38.2851 238.877 39.1616 236.895 39.6189C235.802 39.873 234.557 40 233.16 40H232.931C231.534 40 230.289 39.873 229.197 39.6189C227.215 39.1616 225.475 38.2851 223.976 36.9893C220.266 33.7627 218.412 28.2622 218.412 20.4878C218.412 12.7134 220.317 7.21291 224.128 3.98628C225.652 2.69055 227.405 1.81402 229.387 1.35671C230.429 1.10264 231.623 0.975609 232.97 0.975609Z" fill="#808080"/>
<path d="M250.8 10.166C250.28 6.27995 250.02 3.69434 250.02 2.40918H259.429C259.429 3.26595 259.659 5.42318 260.118 8.88086C260.516 11.7878 261.051 15.4596 261.724 19.8965L261.954 21.4111L263.744 11.8184H273.933L275.723 21.4111L275.953 19.8965C276.626 15.4596 277.161 11.7878 277.559 8.88086C278.018 5.42318 278.248 3.26595 278.248 2.40918H287.657C287.657 3.69434 287.397 6.27995 286.877 10.166C286.479 13.1341 285.928 16.8519 285.224 21.3193C284.735 24.5322 284.199 27.944 283.618 31.5547L282.241 40H269.619L268.838 35.7314L268.058 40H255.436L254.059 31.5547C253.478 27.944 252.942 24.5322 252.453 21.3193C251.749 16.8519 251.198 13.1341 250.8 10.166Z" fill="#808080"/>
<path d="M309.142 0.975609H333.532V10.7317H318.898V15.6098H328.654V25.3659H318.898V40H309.142V0.975609Z" fill="#808080"/>
<path d="M346.313 10.7698V20.4497C349.057 20.3481 351.178 20.1067 352.677 19.7256C353.973 19.3699 354.862 18.9126 355.345 18.3537C355.828 17.7947 356.069 16.8801 356.069 15.6098C356.069 14.3902 355.853 13.5137 355.421 12.9802C355.04 12.4721 354.341 12.0401 353.325 11.6845C352.461 11.405 351.42 11.189 350.2 11.0366C349.133 10.9096 347.837 10.8206 346.313 10.7698ZM346.313 30.2058V40H336.557V0.975609H341.892C345.093 0.975609 347.52 1.03913 349.171 1.16616C352.042 1.36941 354.443 1.80132 356.374 2.46189C359.27 3.40193 361.519 4.90091 363.119 6.95884C364.923 9.29624 365.825 12.1799 365.825 15.6098C365.825 19.3445 364.771 22.406 362.662 24.7942C362.332 25.2007 361.963 25.5691 361.557 25.8994C362.827 27.8811 363.818 29.9517 364.529 32.1113C365.393 34.7027 365.825 37.3323 365.825 40H356.069C356.069 37.9675 355.65 35.9604 354.811 33.9787C354.176 32.4289 353.338 31.0061 352.296 29.7104C350.619 29.9644 348.625 30.1296 346.313 30.2058Z" fill="#808080"/>
<path d="M368.849 0.975609H393.24V10.7317H378.606V15.6098H388.362V25.3659H378.606V30.2439H393.24V40H368.849V0.975609Z" fill="#808080"/>
<path d="M395.776 0.975609H420.167V10.7317H405.532V15.6098H415.289V25.3659H405.532V30.2439H420.167V40H395.776V0.975609Z" fill="#808080"/>
<path d="M450.295 10.7317H440.539V0.975609H469.807V10.7317H460.051V40H450.295V10.7317Z" fill="#808080"/>
<path d="M484.581 11.3796C484.048 11.8623 483.59 12.6245 483.209 13.6662C482.6 15.3684 482.295 17.655 482.295 20.5259C482.295 23.3714 482.587 25.6453 483.171 27.3476C483.552 28.4146 483.997 29.1641 484.505 29.596C484.784 29.8501 485.14 30.0279 485.572 30.1296C485.928 30.2058 486.461 30.2439 487.173 30.2439C487.884 30.2439 488.418 30.2058 488.773 30.1296C489.205 30.0279 489.561 29.8501 489.84 29.596C490.348 29.1641 490.793 28.4146 491.174 27.3476C491.759 25.6453 492.051 23.3714 492.051 20.5259C492.051 17.655 491.746 15.3684 491.136 13.6662C490.755 12.6245 490.298 11.8623 489.764 11.3796C489.434 11.1255 489.053 10.9477 488.621 10.846C488.265 10.7698 487.782 10.7317 487.173 10.7317C486.563 10.7317 486.08 10.7698 485.724 10.846C485.293 10.9477 484.911 11.1255 484.581 11.3796ZM487.096 0.975609H487.249C488.595 0.975609 489.79 1.10264 490.831 1.35671C492.813 1.81402 494.566 2.69055 496.09 3.98628C499.901 7.21291 501.807 12.7134 501.807 20.4878C501.807 28.2622 499.952 33.7627 496.243 36.9893C494.744 38.2851 493.003 39.1616 491.022 39.6189C489.929 39.873 488.684 40 487.287 40H487.058C485.661 40 484.416 39.873 483.324 39.6189C481.342 39.1616 479.602 38.2851 478.103 36.9893C474.393 33.7627 472.539 28.2622 472.539 20.4878C472.539 12.7134 474.444 7.21291 478.255 3.98628C479.779 2.69055 481.532 1.81402 483.514 1.35671C484.556 1.10264 485.75 0.975609 487.096 0.975609Z" fill="#808080"/>
<path d="M518.285 0.975609H528.042V30.2439H542.676V40H518.285V0.975609Z" fill="#808080"/>
<path d="M545.212 0.975609H569.603V10.7317H554.968V15.6098H564.724V25.3659H554.968V30.2439H569.603V40H545.212V0.975609Z" fill="#808080"/>
<path d="M578.2 0.975609H597.103L597.407 5.54878L597.522 7.1875C597.623 8.61026 597.763 10.0838 597.941 11.6082C598.449 16.4101 599.071 20.6784 599.808 24.4131C600.545 28.0971 601.117 31.1458 601.523 33.5595C602.031 36.659 602.285 38.8059 602.285 40H592.529C592.529 39.3394 592.313 37.7388 591.881 35.1982C591.653 33.7754 591.361 32.124 591.005 30.2439H584.298C583.942 32.124 583.65 33.7754 583.421 35.1982C582.989 37.7388 582.773 39.3394 582.773 40H573.017C573.017 38.8059 573.271 36.659 573.779 33.5595C574.186 31.1458 574.757 28.0971 575.494 24.4131C576.231 20.6784 576.854 16.4101 577.362 11.6082C577.539 10.0838 577.679 8.61026 577.781 7.1875L577.895 5.96799L578.2 0.975609ZM587.27 10.7317C587.194 11.3669 587.13 11.9893 587.08 12.5991C586.8 15.3684 586.47 17.998 586.089 20.4878H589.214C588.833 17.998 588.502 15.3684 588.223 12.5991L588.032 10.7317H587.27Z" fill="#808080"/>
<path d="M615.554 10.7698V20.4497C618.298 20.3481 620.419 20.1067 621.918 19.7256C623.214 19.3699 624.103 18.9126 624.586 18.3537C625.068 17.7947 625.31 16.8801 625.31 15.6098C625.31 14.3902 625.094 13.5137 624.662 12.9802C624.281 12.4721 623.582 12.0401 622.566 11.6845C621.702 11.405 620.66 11.189 619.441 11.0366C618.374 10.9096 617.078 10.8206 615.554 10.7698ZM615.554 30.2058V40H605.798V0.975609H611.133C614.334 0.975609 616.761 1.03913 618.412 1.16616C621.283 1.36941 623.684 1.80132 625.615 2.46189C628.511 3.40193 630.76 4.90091 632.36 6.95884C634.164 9.29624 635.066 12.1799 635.066 15.6098C635.066 19.3445 634.012 22.406 631.903 24.7942C631.573 25.2007 631.204 25.5691 630.798 25.8994C632.068 27.8811 633.059 29.9517 633.77 32.1113C634.634 34.7027 635.066 37.3323 635.066 40H625.31C625.31 37.9675 624.891 35.9604 624.052 33.9787C623.417 32.4289 622.579 31.0061 621.537 29.7104C619.86 29.9644 617.866 30.1296 615.554 30.2058Z" fill="#808080"/>
<path d="M637.603 0.975609H646.52L657.115 19.154V0.975609H666.871V40H657.953L647.359 21.8216V40H637.603V0.975609Z" fill="#808080"/>
</svg>
