<svg width="16" height="20" viewBox="0 0 16 20" fill="none" xmlns="http://www.w3.org/2000/svg">
<path fill-rule="evenodd" clip-rule="evenodd" d="M8 2C4.68629 2 2 4.68629 2 8C2 10.2956 3.28891 12.2918 5.18723 13.3014C5.24276 13.331 5.29643 13.3639 5.34792 13.4H10.6521C10.7036 13.3639 10.7572 13.331 10.8128 13.3014C12.7111 12.2918 14 10.2956 14 8C14 4.68629 11.3137 2 8 2ZM10 15.4H6V16.15H10V15.4ZM7 18C6.4987 18 6.08355 17.6311 6.01118 17.15H9.98882C9.91645 17.6311 9.5013 18 9 18H7ZM0 8C0 3.58172 3.58172 0 8 0C12.4183 0 16 3.58172 16 8C16 10.9626 14.3893 13.5476 12 14.9295V17C12 18.6569 10.6569 20 9 20H7C5.34315 20 4 18.6569 4 17V14.9295C1.61074 13.5476 0 10.9626 0 8Z" fill="white"/>
</svg>
